<?xml version="1.0" standalone="no"?>
<!DOCTYPE svg PUBLIC "-//W3C//DTD SVG 20010904//EN"
 "http://www.w3.org/TR/2001/REC-SVG-20010904/DTD/svg10.dtd">
<svg version="1.0" xmlns="http://www.w3.org/2000/svg"
 width="500.000000pt" height="500.000000pt" viewBox="0 0 500.000000 500.000000"
 preserveAspectRatio="xMidYMid meet">
<metadata>
Created by potrace 1.14, written by Peter Selinger 2001-2017
</metadata>
<g transform="translate(0.000000,500.000000) scale(0.100000,-0.100000)"
fill="#000000" stroke="none">
<path d="M0 2500 l0 -2500 2500 0 2500 0 0 2500 0 2500 -2500 0 -2500 0 0
-2500z m1365 1120 c7 0 18 -7 25 -15 8 -10 16 -12 19 -6 4 6 18 1 34 -13 15
-13 25 -25 22 -27 -2 -3 17 -16 43 -29 26 -14 55 -31 64 -38 9 -8 22 -12 28
-10 7 2 26 -10 44 -27 18 -17 55 -42 82 -55 27 -14 62 -35 77 -47 32 -25 57
-30 58 -10 0 6 5 1 10 -13 10 -29 114 -96 142 -92 10 2 17 -3 17 -12 0 -19 26
-21 33 -3 3 6 6 3 6 -9 1 -28 11 -36 28 -23 10 9 13 7 13 -10 0 -24 101 -97
119 -86 6 3 14 -2 18 -12 3 -10 14 -26 25 -36 16 -16 18 -35 18 -155 l0 -137
-33 -37 c-17 -20 -40 -47 -50 -59 -9 -13 -17 -18 -17 -11 0 7 -4 12 -10 12 -5
0 -10 -7 -10 -16 0 -10 -6 -14 -17 -10 -10 3 -39 -8 -66 -25 -38 -24 -48 -35
-44 -50 4 -16 3 -18 -8 -9 -11 9 -16 6 -25 -11 -9 -15 -14 -18 -20 -9 -9 15
-50 -7 -50 -27 0 -7 -9 -13 -20 -13 -18 0 -53 -17 -109 -52 -12 -7 -24 -21
-27 -31 -4 -12 -12 -16 -24 -12 -12 4 -24 -2 -34 -17 -9 -12 -24 -23 -33 -23
-32 0 -123 -59 -129 -83 -5 -18 -9 -20 -20 -11 -11 9 -22 6 -48 -15 -19 -14
-38 -26 -42 -26 -4 0 -30 -14 -58 -32 -92 -56 -118 -69 -132 -64 -13 5 -45 50
-137 195 l-48 75 23 18 c13 10 44 31 70 46 27 15 48 33 48 41 0 8 3 11 7 8 3
-4 13 -1 22 7 9 8 21 14 26 14 6 0 15 9 21 22 8 14 13 17 16 9 6 -19 128 59
140 90 7 20 11 22 18 11 7 -12 11 -12 27 1 10 8 24 22 31 32 7 9 21 17 30 17
10 0 28 7 40 16 19 13 21 19 11 30 -10 12 -10 15 1 12 7 -2 17 8 21 22 l7 25
1 -28 c1 -35 18 -27 37 19 11 27 20 34 43 34 15 0 36 9 46 20 10 11 14 20 9
20 -6 0 -14 14 -19 32 -13 43 -35 49 -35 9 0 -48 -17 -36 -23 16 -5 48 -34 82
-69 83 -10 0 -22 9 -28 20 -13 25 -40 26 -41 3 0 -10 -5 -4 -10 14 -7 23 -24
41 -66 67 -32 20 -67 36 -79 36 -12 0 -29 11 -39 26 -13 20 -19 23 -30 14 -10
-9 -15 -6 -20 10 -4 13 -12 19 -21 16 -8 -3 -14 1 -14 8 0 12 -89 76 -105 76
-4 0 -47 26 -94 57 -7 4 46 99 113 201 l67 103 46 -25 c25 -15 51 -26 58 -26z
m272 -692 c-3 -7 -5 -2 -5 12 0 14 2 19 5 13 2 -7 2 -19 0 -25z m2244 -1015
c8 -8 11 -59 10 -164 -1 -84 -3 -154 -4 -156 -2 -1 -36 -3 -75 -4 -46 -1 -72
-6 -72 -13 0 -7 -3 -6 -8 2 -10 15 -93 13 -104 -3 -5 -6 -11 -5 -17 4 -8 12
-12 12 -25 2 -11 -9 -16 -10 -16 -2 0 19 -68 13 -79 -6 -6 -10 -11 -13 -11 -6
0 13 -70 13 -70 -1 0 -5 -8 -2 -18 7 -24 21 -39 21 -50 0 -9 -15 -11 -15 -28
1 -17 18 -19 18 -36 -4 -14 -17 -18 -19 -18 -6 0 19 -56 23 -63 4 -4 -10 -8
-10 -15 1 -7 9 -11 10 -17 2 -5 -9 -11 -9 -22 0 -12 10 -17 10 -25 -2 -7 -11
-11 -11 -15 -1 -6 15 -49 16 -58 2 -5 -8 -11 -8 -20 0 -8 7 -15 7 -19 1 -7
-10 -31 -9 -42 2 -4 4 -13 2 -19 -3 -9 -7 -16 -6 -25 5 -17 20 -37 19 -49 -2
-9 -17 -10 -17 -17 0 -6 16 -8 17 -24 2 -16 -15 -18 -14 -24 2 -6 15 -9 15
-17 3 -8 -11 -12 -12 -16 -2 -6 15 -45 16 -61 0 -9 -9 -12 -9 -12 0 0 7 -7 12
-15 12 -8 0 -15 -6 -15 -12 0 -9 -3 -9 -9 1 -5 8 -15 12 -22 9 -8 -3 -24 -2
-36 3 -19 7 -23 16 -23 51 0 24 -4 58 -9 76 -7 22 -6 32 1 32 7 0 9 19 6 53
-3 28 -3 66 -1 84 5 31 7 32 62 36 31 2 320 4 643 3 436 -1 590 -4 599 -13z"/>
</g>
</svg>
